<svg width="48" height="48" viewBox="0 0 48 48" fill="none" xmlns="http://www.w3.org/2000/svg">
<path d="M7.99951 3.99976V43.9975L11.9993 41.9976L15.9991 43.9975L19.9988 41.9976L23.9986 43.9975L27.9984 41.9976L31.9982 43.9975L35.9979 41.9976L39.9977 43.9975V3.99976L35.9979 5.99964L31.9982 3.99976L27.9984 5.99964L23.9986 3.99976L19.9988 5.99964L15.9991 3.99976L11.9993 5.99964L7.99951 3.99976Z" stroke="#0F172B" stroke-width="3.99978" stroke-linecap="round" stroke-linejoin="round"/>
<path d="M31.9981 15.9991H19.9988C18.938 15.9991 17.9206 16.4206 17.1705 17.1707C16.4204 17.9208 15.999 18.9381 15.999 19.9989C15.999 21.0597 16.4204 22.0771 17.1705 22.8272C17.9206 23.5773 18.938 23.9987 19.9988 23.9987H27.9984C29.0592 23.9987 30.0765 24.4201 30.8266 25.1702C31.5767 25.9203 31.9981 26.9377 31.9981 27.9985C31.9981 29.0593 31.5767 30.0766 30.8266 30.8267C30.0765 31.5768 29.0592 31.9983 27.9984 31.9983H15.999" stroke="#0F172B" stroke-width="3.99978" stroke-linecap="round" stroke-linejoin="round"/>
<path d="M23.9985 34.998V12.9993" stroke="#0F172B" stroke-width="3.99978" stroke-linecap="round" stroke-linejoin="round"/>
</svg>
