<svg width="16" height="16" viewBox="0 0 16 16" fill="none" xmlns="http://www.w3.org/2000/svg">
<g clip-path="url(#clip0_4_696)">
<path d="M5.33094 14.6605C5.69898 14.6605 5.99733 14.3622 5.99733 13.9941C5.99733 13.6261 5.69898 13.3278 5.33094 13.3278C4.9629 13.3278 4.66455 13.6261 4.66455 13.9941C4.66455 14.3622 4.9629 14.6605 5.33094 14.6605Z" stroke="#E2E8F0" stroke-width="1.33278" stroke-linecap="round" stroke-linejoin="round"/>
<path d="M12.6615 14.6605C13.0295 14.6605 13.3279 14.3622 13.3279 13.9941C13.3279 13.6261 13.0295 13.3278 12.6615 13.3278C12.2935 13.3278 11.9951 13.6261 11.9951 13.9941C11.9951 14.3622 12.2935 14.6605 12.6615 14.6605Z" stroke="#E2E8F0" stroke-width="1.33278" stroke-linecap="round" stroke-linejoin="round"/>
<path d="M1.36621 1.36609H2.69899L4.47158 9.64264C4.53661 9.94575 4.70527 10.2167 4.94853 10.4089C5.19179 10.6011 5.49443 10.7024 5.80436 10.6955H12.3216C12.625 10.695 12.9191 10.5911 13.1553 10.4009C13.3916 10.2107 13.5559 9.94553 13.6211 9.6493L14.7206 4.69803H3.41203" stroke="#E2E8F0" stroke-width="1.33278" stroke-linecap="round" stroke-linejoin="round"/>
</g>
<defs>
<clipPath id="clip0_4_696">
<rect width="15.9933" height="15.9933" fill="white"/>
</clipPath>
</defs>
</svg>
